<svg width="88" height="77" viewBox="0 0 88 77" fill="none" xmlns="http://www.w3.org/2000/svg">
  <metadata>
    <![CDATA[
      <rdf:RDF xmlns:rdf="http://www.w3.org/1999/02/22-rdf-syntax-ns#"
               xmlns:dc="http://purl.org/dc/elements/1.1/">
        <rdf:Description rdf:about="https://t.me/prisyachev">
          <dc:title>Fuji</dc:title>
          <dc:description>Fuji tree, logo for diy ui design system projects</dc:description>
          <dc:creator>Vadim Prisyachev</dc:creator>
          <dc:date>2025-05-19</dc:date>
          <dc:rights>© 2025 Vadim Prisyachev. All rights reserved.</dc:rights>
        </rdf:Description>
      </rdf:RDF>
    ]]>
  </metadata>
  <path d="M56.8281 0L64 7.17188V24H74.4717L88 30.7637V50.8281L80.8281 58H54.8281L58 61.1719V76.5H28.8213L36 61.5449V58H26.8281L20.8281 64H7.17188L0 56.8281V43.1719L7.17188 36H20.8281L28 43.1719V48H36V44.8281L30 38.8281V34H19.1719L12 26.8281V7.17188L19.1719 0H56.8281ZM16 8.82812V25.1719L20.8281 30H31.1719L36 25.1719V20.9131C35.2135 20.6477 34.4686 20.2233 33.8184 19.6357L33.5859 19.4141C31.148 16.9762 31.148 13.0238 33.5859 10.5859L33.8184 10.3643C36.2689 8.15004 40.0523 8.22418 42.4141 10.5859L42.6357 10.8184C44.85 13.2689 44.7758 17.0523 42.4141 19.4141C41.7112 20.1169 40.882 20.6155 40 20.9131V26.8281L34 32.8281V37.1719L40 43.1719V52H24V44.8281L19.1719 40H8.82812L4 44.8281V55.1719L8.82812 60H19.1719L21.1719 58H19.1719L16.7666 55.5947C14.5244 56.7038 11.7555 56.3861 9.81836 54.6357L9.58594 54.4141C7.14804 51.9762 7.14804 48.0238 9.58594 45.5859L9.81836 45.3643C12.2689 43.15 16.0523 43.2242 18.4141 45.5859L18.6357 45.8184C20.3861 47.7555 20.7038 50.5244 19.5947 52.7666L20.8281 54H40V62.4551L35.1777 72.5H54V62.8281L48 56.8281V44.8281L42 38.8281V31.1719L48 25.1719V16.5H52V26.8281L48.8281 30H55.1719L60 25.1719V8.82812L55.1719 4H20.8281L16 8.82812ZM56.8281 34H46V37.1719L52 43.1719V54H64.3945L72 48.9297V45.9131C71.2135 45.6477 70.4686 45.2233 69.8184 44.6357L69.5859 44.4141C67.148 41.9762 67.148 38.0238 69.5859 35.5859L69.8184 35.3643C72.2689 33.15 76.0523 33.2242 78.4141 35.5859L78.6357 35.8184C80.85 38.2689 80.7758 42.0523 78.4141 44.4141C77.7112 45.1169 76.882 45.6155 76 45.9131V51.0703L71.6055 54H79.1719L84 49.1719V33.2363L73.5273 28H62.8281L56.8281 34ZM15.5859 48.4141C14.7649 47.593 13.4658 47.5423 12.585 48.2607L12.4141 48.4141C11.5383 49.2899 11.5383 50.7101 12.4141 51.5859L12.585 51.7393C13.4658 52.4577 14.7649 52.407 15.5859 51.5859C16.407 50.7649 16.4577 49.4658 15.7393 48.585L15.5859 48.4141ZM75.5859 38.4141C74.7649 37.593 73.4658 37.5423 72.585 38.2607L72.4141 38.4141C71.5383 39.2899 71.5383 40.7101 72.4141 41.5859L72.585 41.7393C73.4658 42.4577 74.7649 42.407 75.5859 41.5859C76.407 40.7649 76.4577 39.4658 75.7393 38.585L75.5859 38.4141ZM39.5859 13.4141C38.7649 12.593 37.4658 12.5423 36.585 13.2607L36.4141 13.4141C35.5383 14.2899 35.5383 15.7101 36.4141 16.5859L36.585 16.7393C37.4658 17.4577 38.7649 17.407 39.5859 16.5859C40.407 15.7649 40.4577 14.4658 39.7393 13.585L39.5859 13.4141Z" fill="white" style="fill:white;fill-opacity:1;"/>
  <path d="M56.8281 34H46V37.1719L52 43.1719V54H64.3945L72 48.9297V45.9131C71.2135 45.6477 70.4686 45.2233 69.8184 44.6357L69.5859 44.4141C67.148 41.9762 67.148 38.0238 69.5859 35.5859L69.8184 35.3643C72.2689 33.15 76.0523 33.2242 78.4141 35.5859L78.6357 35.8184C80.85 38.2689 80.7758 42.0523 78.4141 44.4141C77.7112 45.1169 76.882 45.6155 76 45.9131V51.0703L71.6055 54H79.1719L84 49.1719V33.2363L73.5273 28H62.8281L56.8281 34Z" fill="white" fill-opacity="0.4" style="fill:white;fill-opacity:0.4;"/>
</svg>
